<svg width="900" height="900" viewBox="0 0 900 900" xmlns="http://www.w3.org/2000/svg" fill="none">
  <defs>
    <radialGradient id="coreGlow" cx="0" cy="0" r="1" gradientUnits="userSpaceOnUse" gradientTransform="translate(450 450) rotate(90) scale(260)">
      <stop offset="0" stop-color="#9FFFE0" stop-opacity="0.95"/>
      <stop offset="0.35" stop-color="#35E9A4" stop-opacity="0.55"/>
      <stop offset="1" stop-color="#35E9A4" stop-opacity="0"/>
    </radialGradient>
    <linearGradient id="ringStroke" x1="110" y1="150" x2="790" y2="760" gradientUnits="userSpaceOnUse">
      <stop stop-color="#8BD9FF" stop-opacity="0.55"/>
      <stop offset="1" stop-color="#46E9A4" stop-opacity="0.35"/>
    </linearGradient>
    <linearGradient id="pathStroke" x1="168" y1="278" x2="735" y2="618" gradientUnits="userSpaceOnUse">
      <stop stop-color="#9EDCFF" stop-opacity="0.75"/>
      <stop offset="1" stop-color="#64FFBF" stop-opacity="0.7"/>
    </linearGradient>
    <filter id="softBlur" x="0" y="0" width="900" height="900" filterUnits="userSpaceOnUse" color-interpolation-filters="sRGB">
      <feGaussianBlur stdDeviation="2.2"/>
    </filter>
  </defs>

  <rect width="900" height="900" rx="450" fill="#041328"/>
  <circle cx="450" cy="450" r="266" fill="url(#coreGlow)"/>

  <g opacity="0.6">
    <circle cx="450" cy="450" r="340" stroke="url(#ringStroke)" stroke-width="2" stroke-dasharray="10 16"/>
    <circle cx="450" cy="450" r="290" stroke="url(#ringStroke)" stroke-width="1.7" stroke-dasharray="8 12"/>
    <ellipse cx="450" cy="450" rx="360" ry="238" transform="rotate(-17 450 450)" stroke="url(#ringStroke)" stroke-width="1.5"/>
    <ellipse cx="450" cy="450" rx="314" ry="220" transform="rotate(23 450 450)" stroke="url(#ringStroke)" stroke-width="1.5" stroke-dasharray="4 9"/>
  </g>

  <g filter="url(#softBlur)" opacity="0.7">
    <path d="M168 525 C248 356 366 311 449 448 C529 581 646 573 735 395" stroke="url(#pathStroke)" stroke-width="4" stroke-linecap="round"/>
    <path d="M195 335 C301 436 350 548 474 551 C601 553 666 485 705 618" stroke="url(#pathStroke)" stroke-width="3" stroke-linecap="round"/>
  </g>

  <g>
    <circle cx="245" cy="366" r="8" fill="#9CDFFF"/>
    <circle cx="324" cy="540" r="6" fill="#87FFC8"/>
    <circle cx="452" cy="448" r="9" fill="#CEFFE9"/>
    <circle cx="589" cy="565" r="7" fill="#87FFC8"/>
    <circle cx="668" cy="401" r="8" fill="#9CDFFF"/>
  </g>
</svg>
